<svg version="1.1" id="Layer_1" xmlns="http://www.w3.org/2000/svg" xmlns:xlink="http://www.w3.org/1999/xlink" x="0px" y="0px" viewBox="0 0 500 500" style="width: 151px;" xml:space="preserve" data-imageid="python-24" imageName="Python" class="illustrations_image">
<style type="text/css">
	.st0_python-24{fill:#FFC963;}
	.st1_python-24{opacity:0.32;fill:url(#SVGID_1_);enable-background:new    ;}
	.st2_python-24{fill:url(#SVGID_00000066485999656575640510000011608035779413480100_);}
	.st3_python-24{opacity:0.32;fill:url(#SVGID_00000165925105461676590350000004220268124981240974_);enable-background:new    ;}
	.st4_python-24{fill:#00275E;}
	.st5_python-24{fill:#68E1FD;}
	.st6_python-24{fill:#5FAD00;}
	.st7_python-24{fill:#F15A24;}
	.st8_python-24{fill:#A03500;}
	.st9_python-24{fill:#1A4982;}
	.st10_python-24{opacity:0.32;fill:url(#Plant_Shadow-2_00000145743192036696105850000002736226143390721723_);enable-background:new    ;}
	.st11_python-24{fill:#297600;}
</style>
<path id="Base_python-24" class="st0_python-24" d="M248,437l198-115.6c5.3-3.1,7.1-9.8,4-15.1c-1-1.7-2.3-3-4-4L248.4,187.5c-2.7-1.6-6-1.9-9-0.9&#10;&#9;c-0.2,0.1,4.7-1.5,4.6-1.4L35.2,302.7c-5.3,3-7.2,9.7-4.2,15.1c1,1.7,2.3,3.1,4,4.1l194.8,115C235.5,440,242.3,440.1,248,437z"/>
<g id="Shadow_python-24">
	
		<linearGradient id="SVGID_1_-python-24" gradientUnits="userSpaceOnUse" x1="197.0786" y1="210.2519" x2="249.3486" y2="249.2519" gradientTransform="matrix(1 0 0 -1 0 502)">
		<stop offset="0" style="stop-color:#FFFFFF;stop-opacity:0"/>
		<stop offset="0.98" style="stop-color:#F15A24"/>
	</linearGradient>
	<path class="st1_python-24" d="M195.7,295.1c1.6,0.7,20,11.8,21.8,12.5l86.5-51.1l-9.1-20.6l-43-12.5l-91.2,50.9&#10;&#9;&#9;C176.1,283.3,179.5,287.7,195.7,295.1z"/>
	
		<linearGradient id="SVGID_00000103227783322711250660000009878480789545103247_-python-24" gradientUnits="userSpaceOnUse" x1="-408.171" y1="147.4906" x2="-417.141" y2="132.2406" gradientTransform="matrix(-1 0 0 -1 -97.25 502)">
		<stop offset="0" style="stop-color:#D4A397"/>
		<stop offset="1" style="stop-color:#FFC963"/>
	</linearGradient>
	<polyline style="fill:url(#SVGID_00000103227783322711250660000009878480789545103247_);" points="284.4,365.4 412.5,297.9 &#10;&#9;&#9;432,310.7 223.2,425 194.4,406.2 &#9;"/>
	
		<linearGradient id="SVGID_00000064316443848693934310000006034984999452384136_-python-24" gradientUnits="userSpaceOnUse" x1="89.4026" y1="194.3331" x2="141.6626" y2="233.3431" gradientTransform="matrix(1 0 0 -1 0 502)">
		<stop offset="0" style="stop-color:#FFFFFF;stop-opacity:0"/>
		<stop offset="0.98" style="stop-color:#F15A24"/>
	</linearGradient>
	<path style="opacity:0.32;fill:url(#SVGID_00000064316443848693934310000006034984999452384136_);enable-background:new    ;" d="&#10;&#9;&#9;M178.4,240l-16.4-4.8c-18.6,10.4-36.1,22.7-53.6,34.9c-12.2,8.5-24.9,16.6-37.3,25.1c2.3,1.2,5,2.6,8.1,4&#10;&#9;&#9;c1.6,0.7,20,11.8,21.8,12.5l86.5-51.1L178.4,240z"/>
</g>
<g id="Keyboard_python-24">
	<path class="st4_python-24" d="M344.5,259.1l67.9,38.8c2.2,1.3,3,4.1,1.7,6.4c-0.4,0.7-1,1.3-1.7,1.7L223.8,414.5c-4.7,2.7-10.4,2.7-15.1,0&#10;&#9;&#9;l-63.5-36.7c-2.3-1.3-3.1-4.3-1.8-6.6c0.4-0.8,1.1-1.4,1.8-1.8l190.9-110.3C338.7,257.6,341.9,257.6,344.5,259.1z"/>
	<path class="st5_python-24 targetColor" d="M241.9,321l19.4,11.5l-14.4,8.4c-4.1-2.4-15.7-9.2-19.4-11.5L241.9,321z" style="fill: rgb(104, 225, 253);"/>
	<path class="st5_python-24 targetColor" d="M263.2,308.6l19.4,11.5l-18.2,10.6c-3.2-1.9-14.9-8.8-19.4-11.5L263.2,308.6z" style="fill: rgb(104, 225, 253);"/>
	<path class="st5_python-24 targetColor" d="M340.3,263.8l19.7,11.3l-17.5,10.2c-2.8-1.6-14.7-8.6-19.5-11.5L340.3,263.8z" style="fill: rgb(104, 225, 253);"/>
	<path class="st5_python-24 targetColor" d="M298.8,287.9l19.4,11.5l-14.4,8.4c-3.4-2-15.1-8.9-19.5-11.5L298.8,287.9z" style="fill: rgb(104, 225, 253);"/>
	<path class="st5_python-24 targetColor" d="M320.1,275.6l19.4,11.5l-18.2,10.6c-2.1-1.2-14.3-8.4-19.5-11.5L320.1,275.6z" style="fill: rgb(104, 225, 253);"/>
	<path class="st5_python-24 targetColor" d="M224.5,331.1l19.4,11.5l-13.8,8c-4.1-2.4-15.8-9.3-19.4-11.5L224.5,331.1z" style="fill: rgb(104, 225, 253);"/>
	<path class="st5_python-24 targetColor" d="M281.4,298l19.4,11.5l-15.2,8.9c-3.6-2.1-15.2-9-19.5-11.5L281.4,298z" style="fill: rgb(104, 225, 253);"/>
	<path class="st5_python-24 targetColor" d="M207.7,340.8l19.4,11.5l-18.2,10.6c-3.8-2.2-15.4-9.1-19.5-11.5L207.7,340.8z" style="fill: rgb(104, 225, 253);"/>
	<polygon class="st5_python-24 targetColor" points="186.4,353.2 205.8,364.7 173.1,383.6 153.4,372.3 &#9;" style="fill: rgb(104, 225, 253);"/>
	<path class="st5_python-24 targetColor" d="M362.5,278.5l19.7,11.3l-25.5,14.8c-3.3-1.9-15-8.8-19.5-11.5L362.5,278.5z" style="fill: rgb(104, 225, 253);"/>
	<path class="st5_python-24 targetColor" d="M313.1,307.2l19.4,11.5l-14.4,8.3c-3.9-2.2-15.5-9.1-19.5-11.5L313.1,307.2z" style="fill: rgb(104, 225, 253);"/>
	<path class="st5_python-24 targetColor" d="M277.4,327.9l19.4,11.5L278.6,350c-3.7-2.1-15.3-9-19.5-11.5L277.4,327.9z" style="fill: rgb(104, 225, 253);"/>
	<path class="st5_python-24 targetColor" d="M295.7,317.3l19.4,11.5l-15.2,8.9c-4-2.3-15.6-9.2-19.5-11.5L295.7,317.3z" style="fill: rgb(104, 225, 253);"/>
	<path class="st5_python-24 targetColor" d="M256.2,340.2l19.4,11.5l-14.4,8.4c-4.5-2.6-16.2-9.5-19.4-11.5L256.2,340.2z" style="fill: rgb(104, 225, 253);"/>
	<path class="st5_python-24 targetColor" d="M238.8,350.4l19.4,11.5l-13.8,8c-4.5-2.6-16.3-9.6-19.4-11.5L238.8,350.4z" style="fill: rgb(104, 225, 253);"/>
	<path class="st5_python-24 targetColor" d="M334.4,294.8l19.4,11.5l-18.2,10.6c-2.9-1.7-14.7-8.7-19.5-11.5L334.4,294.8z" style="fill: rgb(104, 225, 253);"/>
	<path class="st5_python-24 targetColor" d="M222,360.1l19.4,11.5l-18.2,10.6c-4.2-2.5-15.9-9.3-19.4-11.5L222,360.1z" style="fill: rgb(104, 225, 253);"/>
	<polygon class="st5_python-24 targetColor" points="220.1,383.9 195.4,398.3 175.7,387 200.7,372.4 &#9;" style="fill: rgb(104, 225, 253);"/>
	<polygon class="st5_python-24 targetColor" points="234.6,382 249,390.5 232.3,400.2 217.7,391.8 &#9;" style="fill: rgb(104, 225, 253);"/>
	<polygon class="st5_python-24 targetColor" points="228.9,402.2 214.6,410.5 200,402.1 214.4,393.7 &#9;" style="fill: rgb(104, 225, 253);"/>
	<polygon class="st5_python-24 targetColor" points="386.9,293.6 401.9,301.9 384.8,311.9 370,303.4 &#9;" style="fill: rgb(104, 225, 253);"/>
	<polygon class="st5_python-24 targetColor" points="366.8,305.2 381.4,313.9 363.1,324.5 348.3,316 &#9;" style="fill: rgb(104, 225, 253);"/>
	<polygon class="st5_python-24 targetColor" points="345,317.8 359.6,326.5 252.5,388.5 237.8,380.1 &#9;" style="fill: rgb(104, 225, 253);"/>
</g>
<g id="Monitor_python-24">
	<path class="st4_python-24" d="M172.1,230.9l23.4,12.1c2.9,1.6,3.9,5.3,2.3,8.2c-0.5,0.8-1.1,1.5-1.9,2l-55.4,34.7c-2.4,1.5-5.6,0.8-7.1-1.7&#10;&#9;&#9;c0-0.1-0.1-0.1-0.1-0.2l-13.5-22.5"/>
	<path class="st5_python-24 targetColor" d="M44.9,172.7L231.4,57.3c5.6-3.5,12.6,0.9,12.6,7.8v120.1c0,2.6-1.3,5.1-3.5,6.5L41.8,315&#10;&#9;&#9;c-3,1.9-6.8-0.5-6.8-4.2V191.2C34.9,183.7,38.7,176.7,44.9,172.7z" style="fill: rgb(104, 225, 253);"/>
	<path class="st4_python-24" d="M231.3,66.3L50.6,178.1c-4,2.6-6.4,7-6.4,11.8v90c0,3.8,3.8,6.1,6.9,4.3l184.3-113.7c1.4-0.9,2.3-2.5,2.3-4.2&#10;&#9;&#9;v-96C237.7,66.8,234.2,64.6,231.3,66.3z"/>
	
		<ellipse transform="matrix(0.1231 -0.9924 0.9924 0.1231 -92.6844 357.8195)" class="st4_python-24" cx="156.1" cy="231.4" rx="4.8" ry="3.9"/>
	<polygon class="st0_python-24" points="166.9,126.9 166.9,131.6 206.2,108.8 206.2,104.2 &#9;"/>
	<polygon class="st5_python-24 targetColor" points="163,129.2 52.4,193.1 52.4,198.2 163,133.9 &#9;" style="fill: rgb(104, 225, 253);"/>
	<polygon class="st6_python-24" points="69.7,198.4 52.4,208.4 52.4,213.5 69.7,203.4 &#9;"/>
	<polygon class="st0_python-24" points="73.6,196.2 73.6,201.1 135.6,165.1 135.6,160.4 &#9;"/>
	<polygon class="st7_python-24" points="139.5,158.1 139.5,162.9 180,139.3 180,134.7 &#9;"/>
	<polygon class="st6_python-24" points="183.9,132.4 183.9,137.1 206.2,124.1 206.2,119.5 &#9;"/>
	<polygon class="st5_python-24 targetColor" points="164.3,158.9 53.7,222.9 53.7,227.9 164.3,163.6 &#9;" style="fill: rgb(104, 225, 253);"/>
</g>
<g id="Phyton_python-24">
	<polyline class="st8_python-24" points="275.4,128.5 281.3,125.3 280,120.5 274.4,119.8 &#9;"/>
	<polyline class="st8_python-24" points="271.4,87.1 277.3,84 279.2,92.5 273.4,93.2 &#9;"/>
	<polyline class="st8_python-24" points="291.7,121.2 297.6,118 293.3,115.2 289.9,117.4 &#9;"/>
	<polyline class="st8_python-24" points="287,96.5 293,110 297.1,110 298.3,102.5 291.4,96.5 &#9;"/>
	<path class="st8_python-24" d="M299,100.2c1.9,3.3,2.8,7,2.6,10.8c-0.3,3.5-1.6,5.9-4,7.1c-2.2,1.1-4.7,0.8-7.7-0.7c-0.3-0.1-0.6-0.3-0.9-0.5&#10;&#9;&#9;l-6.7-3.8l-1,12.3l-7-4l3-37.4l13.7,7.8C294.4,93.8,297.2,96.7,299,100.2z M294.7,107c0.1-1.6-0.3-3.2-1.1-4.6&#10;&#9;&#9;c-0.8-1.5-1.9-2.7-3.4-3.5l-6.5-3.7l-0.9,10.7l6.5,3.7l0.4,0.2c1,0.6,2.2,0.7,3.3,0.3C294.1,109.4,294.7,108.2,294.7,107"/>
	<polygon class="st8_python-24" points="335.8,117.4 361.3,131.9 360.7,139.2 351.5,133.9 349.1,164 342.1,160 344.5,129.9 335.2,124.6 &#9;"/>
	<polygon class="st8_python-24" points="304.2,99.3 311.7,103.6 318,124 327,112.3 334.4,116.6 320.9,134 319.8,147.3 312.9,143.3 313.9,130 &#9;&#10;&#9;&#9;"/>
	<polygon class="st8_python-24" points="366.4,134.9 373.4,138.8 372.2,153.8 386.1,161.7 387.3,146.8 394.3,150.8 391.3,188.1 384.3,184.1 &#10;&#9;&#9;385.5,168.9 371.6,161 370.4,176.2 363.4,172.2 &#9;"/>
	<path class="st8_python-24" d="M430.5,176.6c3.1,5.8,4.4,11.3,4,16.7c-0.4,5.4-2.5,9-6.2,10.9c-3.4,1.7-7.3,1.4-11.8-0.8l-1.2-0.7&#10;&#9;&#9;c-5.2-3.1-9.4-7.5-12.1-12.9c-3.1-5.8-4.4-11.3-4-16.7c0.4-5.4,2.5-9,6.2-10.8c3.4-1.7,7.3-1.4,11.8,0.8c0.4,0.2,0.8,0.4,1.2,0.7&#10;&#9;&#9;C423.6,166.8,427.8,171.3,430.5,176.6z M427.3,189.2c0.2-3.6-0.6-7.3-2.3-10.5c-1.6-3.2-4-5.9-7.1-7.8l-0.7-0.4&#10;&#9;&#9;c-2.6-1.3-5-1.4-7-0.3c-2.2,1.2-3.5,3.6-3.7,7c-0.2,3.6,0.6,7.3,2.3,10.4c1.6,3.2,4,5.9,7.1,7.8c0.2,0.1,0.4,0.2,0.7,0.4&#10;&#9;&#9;c2.6,1.3,5,1.4,7,0.3C425.8,195,427,192.6,427.3,189.2"/>
	<polygon class="st8_python-24" points="442.5,178.3 448.6,181.8 462.7,214.7 464.6,190.9 471.5,194.9 468.6,232.2 462.5,228.8 448.4,195.9 &#10;&#9;&#9;446.5,219.7 439.5,215.7 &#9;"/>
	<polyline class="st8_python-24" points="298.3,102.5 304.2,99.3 311.7,103.6 309.1,106.5 314.1,126.5 310.9,130.2 &#9;"/>
	<polyline class="st8_python-24" points="321.1,115.5 327,112.3 334.4,116.6 320.9,134 319.8,147.3 313.9,150.5 315,137.1 &#9;"/>
	<polyline class="st8_python-24" points="329.9,120.5 335.8,117.4 361.3,131.9 360.7,139.2 354.8,142.3 &#9;"/>
	<polyline class="st8_python-24" points="343.2,167.1 349.1,164 343.2,156.9 &#9;"/>
	<path class="st8_python-24" d="M392,154.9l-4.6-8.1l-5.9,3.1l0.4,11.3l-2.9-1.3l-7.8-7.3l2.4-13.7l-7-4l-5.9,3.1l13.5,28.8&#10;&#9;&#9;c0.8-0.8,2.2-0.8,3,0c0,0,0.1,0.1,0.1,0.2c2.7,3.1,5.4,6.2,5.8,10.4c0.1,0.9-0.4,1.7-1.1,2.1c-0.2,0.6-0.6,1.2-1.2,1.5l4.8,10.3&#10;&#9;&#9;l5.9-3.1l-0.4-22.8L392,154.9z"/>
	<polyline class="st8_python-24" points="364.5,179.3 370.4,176.2 367.5,171.2 362.1,172.3 &#9;"/>
	<path class="st8_python-24" d="M396.6,181.4c0.1,1,4.6,21.1,9.9,20.6s7.3-1.8,7.3-1.8l-9.5-12.8l-4.9-7.5L396.6,181.4z"/>
	<polygon class="st8_python-24" points="416.9,166.4 428.7,177.6 430,185.2 427.1,191 420.2,181.4 415.8,172.1 412.2,168.1 &#9;"/>
	<polyline class="st8_python-24" points="399.6,165.4 405.5,162.3 404,166.4 400.5,166.7 &#9;"/>
	<polyline class="st8_python-24" points="422.4,207.3 430,203.1 427.7,201 424.7,203.6 &#9;"/>
	<polyline class="st8_python-24" points="436.6,181.4 442.5,178.3 452.3,194.6 456.1,205.3 458.1,211.2 458.7,194 464.6,190.9 469.2,198.2 &#10;&#9;&#9;464.8,214.7 468.6,232.2 462.6,235.4 449.6,208.4 446.5,203.6 446.5,219.7 440.6,222.8 &#9;"/>
	<path class="st0_python-24" d="M293.1,103.3c1.9,3.3,2.8,7,2.6,10.8c-0.3,3.6-1.6,5.9-4,7.1c-2.2,1.1-4.7,0.8-7.7-0.7l-0.9-0.5l-6.7-3.8&#10;&#9;&#9;l-1,12.3l-7-4l3-37.4l13.7,7.8C288.5,96.9,291.3,99.8,293.1,103.3z M288.8,110.2c0.1-1.6-0.3-3.2-1.1-4.6c-0.8-1.5-1.9-2.7-3.3-3.5&#10;&#9;&#9;l-6.5-3.7L277,109l6.5,3.7c0.1,0.1,0.2,0.1,0.4,0.2c1,0.6,2.2,0.7,3.2,0.3C288.2,112.6,288.8,111.4,288.8,110.2"/>
	<polygon class="st0_python-24" points="329.9,120.5 355.4,135.1 354.8,142.3 345.6,137 343.2,167.1 336.2,163.2 338.6,133 329.3,127.7 &#9;"/>
	<polygon class="st0_python-24" points="298.3,102.5 305.8,106.7 312.1,127.1 321.1,115.5 328.5,119.7 315,137.1 313.9,150.5 306.9,146.5 &#10;&#9;&#9;308,133.1 &#9;"/>
	<polygon class="st0_python-24" points="360.5,138 367.5,142 366.3,156.9 380.2,164.9 381.4,149.9 388.4,153.9 385.4,191.3 378.4,187.3 &#10;&#9;&#9;379.6,172.1 365.7,164.1 364.5,179.3 357.5,175.4 &#9;"/>
	<path class="st0_python-24" d="M424.6,179.8c3.1,5.8,4.4,11.3,4,16.7c-0.4,5.4-2.5,9-6.2,10.9c-3.4,1.7-7.3,1.5-11.8-0.8&#10;&#9;&#9;c-0.4-0.2-0.8-0.4-1.2-0.7c-5.2-3-9.3-7.5-12-12.8c-3.1-5.8-4.4-11.3-4-16.7c0.4-5.4,2.5-9,6.2-10.8c3.4-1.7,7.3-1.4,11.8,0.8&#10;&#9;&#9;c0.4,0.2,0.8,0.4,1.2,0.7C417.7,170,421.9,174.4,424.6,179.8z M421.4,192.3c0.2-3.6-0.6-7.3-2.3-10.4c-1.6-3.2-4-5.9-7.1-7.8&#10;&#9;&#9;l-0.7-0.4c-2.6-1.3-5-1.4-7-0.3c-2.2,1.2-3.5,3.5-3.7,7c-0.2,3.6,0.6,7.3,2.3,10.4c1.6,3.2,4,5.9,7.1,7.8l0.7,0.4&#10;&#9;&#9;c2.6,1.3,5,1.4,7,0.3C419.9,198.1,421.1,195.8,421.4,192.3"/>
	<polygon class="st0_python-24" points="436.6,181.4 442.7,184.9 456.8,217.8 458.7,194 465.6,198 462.6,235.4 456.6,231.9 442.5,199.1 &#10;&#9;&#9;440.6,222.8 433.6,218.8 &#9;"/>
</g>
<g id="Plant_Shadow_python-24">
	<ellipse class="st4_python-24" cx="269" cy="248" rx="36.7" ry="18.3"/>
	<polyline class="st4_python-24" points="232.4,239.5 232.4,248 305.7,248 305.7,239.5 &#9;"/>
	<ellipse class="st9_python-24" cx="269" cy="239.5" rx="36.7" ry="18.3"/>
</g>
<linearGradient id="Plant_Shadow-2_00000141442651999833906030000011036319882758082979_-python-24" gradientUnits="userSpaceOnUse" x1="243.8281" y1="242.9613" x2="257.7881" y2="262.8113" gradientTransform="matrix(1 0 0 -1 0 502)">
	<stop offset="0" style="stop-color:#FFFFFF;stop-opacity:0"/>
	<stop offset="1" style="stop-color:#F15A24"/>
</linearGradient>
<polyline id="Plant_Shadow-2_python-24" style="opacity:0.32;fill:url(#Plant_Shadow-2_00000141442651999833906030000011036319882758082979_);enable-background:new    ;" points="&#10;&#9;287.3,238 239.5,265.5 219.8,252.4 262.9,228.9 "/>
<g id="Plant_python-24">
	<polyline class="st7_python-24" points="256.8,218.4 256.8,236.5 286,236.5 286,218.4 &#9;"/>
	<ellipse class="st8_python-24" cx="271.4" cy="218.4" rx="14.6" ry="7.2"/>
	<ellipse class="st7_python-24" cx="271.4" cy="237.2" rx="14.6" ry="7.2"/>
	<path class="st11_python-24" d="M287.8,176.5c-3.1-1.3-7.4-5.5-11.1-5.3c-1.4,3.5-1.8,7.6-2.3,11.1c-0.7,6.1-0.9,12.3-0.4,18.5&#10;&#9;&#9;c0.1,1.4,0.2,2.7,0.3,4.1c0,0.4,0.1,0.8,0.3,1.2v14.3c0,0.3,0.3,0.4,0.5,0.4c0.2,0,0.4-0.2,0.4-0.4v-13.8c1.5-0.5,2.9-1.1,4.2-1.9&#10;&#9;&#9;c2.7-1.7,4.8-4.3,5.9-7.4c2.4-6.6,0.9-13.9,3.1-20.4C288.4,176.7,288.1,176.6,287.8,176.5z"/>
	<path class="st6_python-24" d="M281.5,165.7c-1.7,1-3.2,2.5-4.2,4.3c-0.3,0.4-0.5,0.8-0.7,1.3l-0.1,0.3l0,0c-0.3,0.7-0.5,1.5-0.7,2.3&#10;&#9;&#9;c0.3-0.6,0.9-1,1.5-1.2c0.8-0.3,1.6-0.4,2.4-0.2c0.8,0.3,1.5,0.7,2.2,1.2c1,0.6,2,1.3,3.1,2c4.8,3.1,11.3,3.4,15-1.1&#10;&#9;&#9;c0.1-0.2,0.1-0.4,0.1-0.5C300.8,170.8,292.2,159.5,281.5,165.7z"/>
	<path class="st11_python-24" d="M298,176.3c0.2-0.1,0.4-0.3,0.6-0.4c0-0.1,0-0.3-0.1-0.3c-2.9-3-6.1-6-10.1-7.4c-2.9-1.1-6-1.4-9-0.9&#10;&#9;&#9;c-0.3,0.4-0.6,0.8-0.9,1.2c3.3-1.1,7.4-0.4,10.3,0.9c3.5,1.5,6.4,4.2,9,6.9C297.9,176.3,297.9,176.3,298,176.3z"/>
	<path class="st11_python-24" d="M248.9,182.9c-4.3,2.2-6.9,6.8-6.5,11.7c0.3,8.6,14.5,0.2,18.3-7.1s4.4,3.1,4.4,3.1"/>
	<path class="st6_python-24" d="M261.7,179.9c-2.7,0-5.3,0.3-7.9,1.1c-1.7,0.4-3.4,1.1-4.9,1.9c0.9,0.6,1.8,1.1,2.8,1.5&#10;&#9;&#9;c1.8,0.7,3.6,1.6,4.6,3.3c0.2,0.4,0.4,0.8,0.5,1.3c0.9,2.8,0.1,6.3,1.3,9.1s3.5,5.4,6.9,5.6c4,0.2,5.8-3.6,6.6-6.9&#10;&#9;&#9;s1.9-7.9,0.6-11.3C270.9,181.5,265.5,180,261.7,179.9z"/>
	<path class="st11_python-24" d="M267,193.3c-1.7-5.4-5.2-10.6-10.5-13h-0.2l-0.2,0.1c-0.3,0.1-0.6,0.2-1,0.2c6.1,2.2,9.9,8.2,11.5,14.4&#10;&#9;&#9;c2,7.8,1.3,16.3,1.3,24.3c0,0.2,0.2,0.4,0.4,0.4c0.2,0,0.4-0.2,0.4-0.4C268.8,210.8,269.5,201.6,267,193.3z"/>
</g>
</svg>